<svg xmlns="http://www.w3.org/2000/svg" xmlns:xlink="http://www.w3.org/1999/xlink" width="24" height="18" viewBox="0 0 24 18"><defs><path id="cf4na" d="M1315.637 25h17c.5 0 1 .5 1 1s-.5 1-1 1h-17z"/><path id="cf4nb" d="M1310.637 26c0-1 1-2 2-2h2v4h-2c-1 0-2-1-2-2z"/><path id="cf4nc" d="M1315.363 39h17c.5 0 1 .5 1 1s-.5 1-1 1h-17z"/><path id="cf4nd" d="M1310.363 40c0-1 1-2 2-2h2v4h-2c-1 0-2-1-2-2z"/><path id="cf4ne" d="M1328.637 34h-17c-.5 0-1-.5-1-1s.5-1 1-1h17z"/><path id="cf4nf" d="M1333.637 33c0 1-1 2-2 2h-2v-4h2c1 0 2 1 2 2z"/></defs><g><g transform="translate(-1310 -24)"><g><g><use fill="#0f0a28" xlink:href="#cf4na"/></g><g><use fill="#0f0a28" xlink:href="#cf4nb"/></g></g><g><g><use fill="#0f0a28" xlink:href="#cf4nc"/></g><g><use fill="#0f0a28" xlink:href="#cf4nd"/></g></g><g><g><use fill="#0f0a28" xlink:href="#cf4ne"/></g><g><use fill="#0f0a28" xlink:href="#cf4nf"/></g></g></g><g transform="translate(-1310 -24)"><g><g><use fill="#868493" xlink:href="#cf4na"/></g><g><use fill="#868493" xlink:href="#cf4nb"/></g></g><g><g><use fill="#868493" xlink:href="#cf4nc"/></g><g><use fill="#868493" xlink:href="#cf4nd"/></g></g><g><g><use fill="#868493" xlink:href="#cf4ne"/></g><g><use fill="#868493" xlink:href="#cf4nf"/></g></g></g></g></svg>