<svg xmlns="http://www.w3.org/2000/svg" xmlns:xlink="http://www.w3.org/1999/xlink" width="60" height="78" viewBox="0 0 60 78"><defs><path id="4e47a" d="M1126 1173c0-16.787 13.431-30.396 30-30.396 16.568 0 30 13.609 30 30.396s-13.432 30.396-30 30.396c-16.569 0-30-13.609-30-30.396z"/><path id="4e47b" d="M1172.246 1143.521l2.056-4.803c.73-1.704-.05-3.702-1.732-4.44-1.682-.74-3.653.05-4.382 1.754l-2.057 4.803c1.05.34 2.093.733 3.125 1.186 1.032.454 2.027.957 2.99 1.5z"/><path id="4e47c" d="M1139.753 1202.478l-2.055 4.804c-.73 1.703.05 3.702 1.731 4.441 1.682.738 3.654-.05 4.383-1.755l2.057-4.804a33.244 33.244 0 0 1-3.125-1.186 33.115 33.115 0 0 1-2.99-1.5z"/><path id="4e47d" d="M1156 1179.99l7.798 4.153-1.49-8.796 6.31-6.23-8.72-1.283-3.898-8.003-3.9 8.003-8.718 1.283 6.31 6.23-1.49 8.796z"/><path id="4e47e" d="M1156 1147c-14.359 0-26 11.64-26 26 0 14.359 11.641 26 26 26 14.36 0 26-11.641 26-26 0-14.36-11.64-26-26-26zm0 3c12.683 0 23 10.317 23 23 0 12.682-10.317 23-23 23-12.682 0-23-10.318-23-23 0-12.683 10.318-23 23-23"/></defs><g><g transform="translate(-1126 -1134)"><g><g><g><use fill="#0f0a28" xlink:href="#4e47a"/></g><g><g><use fill="#0f0a28" xlink:href="#4e47b"/></g><g><use fill="#0f0a28" xlink:href="#4e47c"/></g></g></g></g><g><use fill="#ffc350" xlink:href="#4e47d"/></g></g><g transform="translate(-1126 -1134)"><use fill="#ffc350" xlink:href="#4e47e"/></g></g></svg>